<svg width="49" height="46" viewBox="0 0 49 46" fill="none" xmlns="http://www.w3.org/2000/svg">
<path d="M24.7333 0.368164C15.1762 0.368164 6.60967 3.86091 0.666626 9.44023L24.7333 45.7285L48.8 9.44023C42.8837 3.88359 34.2904 0.368164 24.7333 0.368164ZM11.3481 11.7082C11.3481 9.21342 13.7574 7.17221 16.7021 7.17221C19.6469 7.17221 22.0562 9.21342 22.0562 11.7082C22.0562 14.2031 19.6469 16.2443 16.7021 16.2443C13.7574 16.2443 11.3481 14.2031 11.3481 11.7082ZM24.7333 29.8524C21.7885 29.8524 19.3792 27.8111 19.3792 25.3163C19.3792 22.8215 21.7885 20.7803 24.7333 20.7803C27.678 20.7803 30.0874 22.8215 30.0874 25.3163C30.0874 27.8111 27.678 29.8524 24.7333 29.8524Z" fill="white"/>
</svg>
