<svg width="48" height="48" viewBox="0 0 48 48" fill="none" xmlns="http://www.w3.org/2000/svg">
<path d="M24 0C14.4694 0 5.92659 3.696 0 9.6L24 48L48 9.6C42.1001 3.72 33.5306 0 24 0ZM10.6518 12C10.6518 9.36 13.0545 7.2 15.9911 7.2C18.9277 7.2 21.3304 9.36 21.3304 12C21.3304 14.64 18.9277 16.8 15.9911 16.8C13.0545 16.8 10.6518 14.64 10.6518 12ZM24 31.2C21.0634 31.2 18.6607 29.04 18.6607 26.4C18.6607 23.76 21.0634 21.6 24 21.6C26.9366 21.6 29.3393 23.76 29.3393 26.4C29.3393 29.04 26.9366 31.2 24 31.2Z" fill="#F07807"/>
</svg>
